<svg width="32" height="32" viewBox="0 0 32 32" fill="none" xmlns="http://www.w3.org/2000/svg">
<path d="M0 16C0 7.16344 7.16344 0 16 0C24.8366 0 32 7.16344 32 16C32 24.8366 24.8366 32 16 32C7.16344 32 0 24.8366 0 16Z" fill="#0077B5"/>
<path fill-rule="evenodd" clip-rule="evenodd" d="M11.5458 9.8818C11.5458 10.9279 10.7584 11.7649 9.49407 11.7649H9.4709C8.25359 11.7649 7.46661 10.9279 7.46661 9.8818C7.46661 8.8136 8.27755 8 9.51797 8C10.7584 8 11.5223 8.8136 11.5458 9.8818ZM11.3074 13.2519V24.1464H7.68145V13.2519H11.3074ZM24.3834 24.1463L24.3836 17.8998C24.3836 14.5535 22.5948 12.996 20.2088 12.996C18.2836 12.996 17.4217 14.0535 16.9404 14.7953V13.2522H13.3141C13.3619 14.2744 13.3141 24.1466 13.3141 24.1466H16.9404V18.0623C16.9404 17.7367 16.964 17.4119 17.0599 17.1787C17.3219 16.5283 17.9186 15.8548 18.9203 15.8548C20.2329 15.8548 20.7576 16.8538 20.7576 18.3178V24.1463H24.3834Z" fill="white"/>
</svg>
